<svg width="181" height="193" viewBox="0 0 181 193" fill="none" xmlns="http://www.w3.org/2000/svg">
<path fill-rule="evenodd" clip-rule="evenodd" d="M123.34 37.1599C128.22 45.0699 136.96 48.7099 143.22 55.1699C153.59 65.8499 163.2 78.1799 165.11 92.1599C166.91 105.36 164.08 119.98 156.4 132.51C145.8 149.81 127.69 153.63 110.24 157.87C107.05 158.65 101.37 158.08 95.75 157C100.99 150.71 108.38 150.5 113.45 145.82C125.19 134.97 134.92 123.02 140.09 107.89C145.33 92.5499 140.74 79.2 129.09 68.71C122.81 63.06 118.33 56.41 113.88 49.52C112.65 47.62 111.54 45.43 113.99 44.23C116.16 43.16 117.83 45.0101 118.71 47.1201C122.47 56.1001 129.1 62.82 136.12 69.23C148.13 80.19 150.8 107.7 140.63 120.21C136.04 125.86 133.19 132.6 127.96 137.9C123.01 142.93 118.41 148.29 111.72 152.69C132.79 151.67 149.46 137.58 156.22 119.36C162.59 102.18 161.31 86.6399 151.05 72.1799C145.84 64.8299 140.51 57.2001 132.52 52.0901C120.57 44.4401 110.91 34.1399 102.84 22.7C99.46 17.91 99.06 11.1101 99.64 4.86011C99.87 2.37011 101.49 1.40007 104.3 1.07007C102.63 17.6701 111.9 28.1799 123.52 37.4099L123.33 37.1599H123.34Z" fill="black"/>
<path fill-rule="evenodd" clip-rule="evenodd" d="M52 50.2801C41 58.3001 28.15 63.0501 22.5 76.2701C19.47 83.3701 18.16 90.28 19.85 97.98C25.97 125.91 48.11 137.36 70.82 148.34C63.88 142.07 57.7 135.01 52.09 127.69C44.38 117.62 37.0801 106.93 35.9001 93.6399C34.8401 81.6399 41.16 73.3101 49.87 66.0601C64.53 53.8601 80.83 43.14 88.2 24.17C89.76 20.17 89.76 16.02 90.57 11.96C90.88 10.41 87.7101 7.54003 91.9001 7.49003C94.8701 7.46003 95.42 9.80001 95.34 12.47C95.08 21.03 91.52 28.28 87.21 35.45C80.03 47.4 69.41 55.6899 58.57 63.8899C51.19 69.4799 44.59 75.6001 41.26 84.8601C39.42 89.9801 40.28 94.6102 41.83 98.8702C49.42 119.71 63.1301 135.94 81.2801 148.47C83.2501 149.83 85.92 151.56 84.85 153.4C83.18 156.31 80.72 154.89 78.49 152.76C76.33 150.71 73.8401 148.35 71.3001 153.18C70.0301 155.59 66.9 152.99 65.57 152.26C52.54 145.1 39.28 138.34 29.23 126.7C15.23 110.49 11.17 92.7 18.36 72.43C20.68 65.88 43.29 49.2 50.36 48.97C50.73 48.96 51.13 49.5501 51.99 50.2601L52 50.2801Z" fill="black"/>
<path fill-rule="evenodd" clip-rule="evenodd" d="M87.6999 10.1799C85.5999 23.8799 70.12 39.74 55.04 42.75C47.79 44.2 40.37 45.4599 33.37 47.3799C22.67 50.3199 15.54 57.8001 10.5 68.6101C5.36 79.6301 5.33997 90.73 6.59997 101.55C7.95997 113.23 15.3299 123.06 23.3199 131.77C26.3099 135.02 30.04 137.6 33.48 140.42C42.9 148.14 53.33 153.74 65.5 155.82C67.44 156.15 71.21 155.27 70.49 158.87C69.69 162.91 66.07 160.63 64.01 160.17C37.12 154.11 17.46 138.13 5.75 113.71C0.109996 101.94 -0.590026 88.6301 3.28997 75.1201C6.81997 62.8501 13.53 54.1399 23.72 46.8999C29.4 42.8599 35.57 42.1399 41.71 41.3899C57.34 39.4799 71.04 34.68 78.87 19.8C81.07 15.61 82.82 11.0099 82.77 6.12988C82.74 3.66988 81.15 0.27002 85.0601 0.27002C88.19 0.27002 88.12 3.81007 88.22 6.32007C88.27 7.60007 87.8799 8.89995 87.6999 10.2V10.1799Z" fill="black"/>
<path fill-rule="evenodd" clip-rule="evenodd" d="M123.52 37.4099C124.21 34.6999 122.33 33.03 120.97 31.17C119.91 29.73 119.56 28.49 121.24 27.2C123.43 25.51 124.07 27.7 124.61 28.76C127.07 33.66 131.67 36.5501 135.97 38.7901C151.18 46.7201 161.64 59.1501 170.26 73.3101C181.39 91.5901 183.21 111.31 174.6 130.73C168.56 144.38 157.89 153.87 142.4 157.88C135.37 159.7 128.83 161.22 121.59 160.52C122.15 156.85 124.23 156.74 126.83 156.71C141.91 156.54 152.87 149.09 163.66 138.8C173.89 129.05 174.07 117.23 175.02 105.6C175.98 93.7901 170.46 83.3599 164.22 73.1299C154.2 56.6999 140.49 45.1499 123.35 37.1499L123.54 37.3999L123.52 37.4099Z" fill="black"/>
<path fill-rule="evenodd" clip-rule="evenodd" d="M98.6 145.92C98.15 142.08 99.15 139.44 101.96 136.76C118.35 121.1 119.93 100.8 116.42 80.5101C114.8 71.1501 108.78 62.2302 105.31 52.8702C104.51 50.7202 103.95 48.45 102.91 46.42C101.75 44.15 101.68 42.2401 104.3 41.4501C107.14 40.6001 107.82 42.8301 107.96 45.0101C108.54 53.9101 113.56 61.25 116.69 69.19C120.65 79.24 124.18 89.0802 122.23 100.06C121.96 101.6 121.53 103.17 121.58 104.71C121.94 117.08 116.04 126.89 108.6 135.93C105.69 139.46 106.91 146.96 98.62 145.91L98.6 145.92Z" fill="black"/>
<path fill-rule="evenodd" clip-rule="evenodd" d="M92.6899 82.1599C92.3699 96.4699 91.54 110.79 91.96 125.07C92.17 132.08 89.77 139.25 92.82 146.19C93.4 147.5 93.27 149.48 91.11 149.74C88.99 150 87.42 148.75 87.16 146.76C86.53 141.96 85.08 136.89 86 132.34C89.97 112.63 86.38 92.5701 89.52 72.8201C90.97 63.7201 88.28 54.2701 90.6 45.1101C90.98 43.5901 90.16 40.7699 92.97 41.1599C94.9 41.4299 95.37 43.47 95.26 45.52C94.63 57.74 94.1 69.9599 93.53 82.1799C93.25 82.1699 92.9601 82.1499 92.6801 82.1399L92.6899 82.1599Z" fill="black"/>
<path fill-rule="evenodd" clip-rule="evenodd" d="M78.6501 125.84C77.6501 128.92 79.6301 131.23 80.5201 133.88C80.9301 135.1 80.3501 137.52 79.4101 138.13C77.7501 139.2 76.46 137.32 76.07 135.93C73.52 126.84 66.6001 120.34 62.1701 112.35C53.7501 97.1501 55.4201 83.09 66.9001 69.72C69.9601 66.15 72.71 62.4699 76.48 59.4299C78.68 64.5799 74.2201 66.7799 71.9301 69.1299C56.5901 84.8599 59.13 101.59 70.87 116.74C73.33 119.92 73.82 125.05 78.83 126.11L78.6401 125.85L78.6501 125.84Z" fill="black"/>
<path fill-rule="evenodd" clip-rule="evenodd" d="M78.84 126.1C80.18 116.28 74.99 107.83 73.1 98.69C71.32 90.09 74.2401 81.8802 75.9101 73.6202C76.0901 72.7502 77.76 71.8302 79.59 72.5602C80.67 78.4702 77.4501 84.0502 77.4001 90.0802C77.3401 96.6902 78.1101 102.71 81.5201 108.32C84.4301 113.09 84.09 118.72 84.95 123.84C85.77 128.74 80.9701 125.49 78.6401 125.84L78.83 126.1H78.84Z" fill="black"/>
<path fill-rule="evenodd" clip-rule="evenodd" d="M108.37 100.18C107.54 106.8 102.05 111.67 101.82 118.38C101.77 119.87 99.92 121.13 98.31 120.58C96.09 119.82 96.54 118.27 97.38 116.3C100.29 109.49 103.24 102.81 104.17 95.1698C104.88 89.3198 103.5 83.9798 103.33 78.4098C103.3 77.2898 101.07 74.7799 104.27 74.2999C107.04 73.8799 107.13 76.6899 107.24 77.9799C107.85 85.3599 108.04 92.7798 108.38 100.18H108.37Z" fill="black"/>
<path fill-rule="evenodd" clip-rule="evenodd" d="M55.9 189.39C54.96 180.79 59.6899 174.89 63.3199 168.59C66.2199 163.55 70.59 165.93 74.28 166.81C76.83 167.42 75.8799 170.55 74.4399 170.91C66.7799 172.78 65.31 179.66 62.14 185.18C60.9 187.34 59.22 188.67 55.9 189.4V189.39Z" fill="black"/>
<path fill-rule="evenodd" clip-rule="evenodd" d="M128.64 184.4C128.58 187.01 128.25 188.12 127.1 188.28C125.87 188.46 124.79 188.19 123.86 186.85C119.75 180.93 118.24 173.13 111.04 169.34C110.13 168.86 110.48 166.24 112.52 165.87C115.09 165.4 118.07 161.06 119.98 164.47C123.73 171.16 126.19 178.57 128.64 184.39V184.4Z" fill="black"/>
<path fill-rule="evenodd" clip-rule="evenodd" d="M102.07 183.65C101.88 184.98 101.89 185.26 101.79 185.49C100.7 188.07 102.55 193.1 98.2701 192.7C95.6001 192.45 94.7701 187.8 95.6601 184.72C97.0001 180.08 94.1001 176.23 93.7701 171.89C93.5901 169.52 93.2301 167.73 95.6701 166.99C97.5501 166.42 99.45 164.83 101.58 166.01C103.76 167.22 102.7 169.34 102.27 170.84C100.95 175.48 104.27 180.16 102.08 183.64L102.07 183.65Z" fill="black"/>
<path fill-rule="evenodd" clip-rule="evenodd" d="M78.0101 191.87C74.0901 182.42 79.2201 174.37 81.1501 165.99C82.1101 161.83 86.67 162.88 89.08 164.31C91.89 165.97 88.9001 167.81 88.0501 169.79C85.9401 174.66 79.92 178 82.36 184.95C82.86 186.37 81.2201 190.34 78.0101 191.87Z" fill="black"/>
</svg>
